<svg xmlns="http://www.w3.org/2000/svg" viewBox="0 0 512 512"><defs><linearGradient id="bgG" x1="0" y1="0" x2="0" y2="1"><stop offset="0%" stop-color="#1b1f28"/><stop offset="100%" stop-color="#12151c"/></linearGradient></defs>
<rect x="0" y="0" width="512" height="512" fill="url(#bgG)"/>
<line x1="0" y1="0" x2="0" y2="512" stroke="#20242e" stroke-width="1"/><line x1="0" y1="0" x2="512" y2="0" stroke="#20242e" stroke-width="1"/><line x1="64" y1="0" x2="64" y2="512" stroke="#20242e" stroke-width="1"/><line x1="0" y1="64" x2="512" y2="64" stroke="#20242e" stroke-width="1"/><line x1="128" y1="0" x2="128" y2="512" stroke="#20242e" stroke-width="1"/><line x1="0" y1="128" x2="512" y2="128" stroke="#20242e" stroke-width="1"/><line x1="192" y1="0" x2="192" y2="512" stroke="#20242e" stroke-width="1"/><line x1="0" y1="192" x2="512" y2="192" stroke="#20242e" stroke-width="1"/><line x1="256" y1="0" x2="256" y2="512" stroke="#20242e" stroke-width="1"/><line x1="0" y1="256" x2="512" y2="256" stroke="#20242e" stroke-width="1"/><line x1="320" y1="0" x2="320" y2="512" stroke="#20242e" stroke-width="1"/><line x1="0" y1="320" x2="512" y2="320" stroke="#20242e" stroke-width="1"/><line x1="384" y1="0" x2="384" y2="512" stroke="#20242e" stroke-width="1"/><line x1="0" y1="384" x2="512" y2="384" stroke="#20242e" stroke-width="1"/><line x1="448" y1="0" x2="448" y2="512" stroke="#20242e" stroke-width="1"/><line x1="0" y1="448" x2="512" y2="448" stroke="#20242e" stroke-width="1"/><line x1="512" y1="0" x2="512" y2="512" stroke="#20242e" stroke-width="1"/><line x1="0" y1="512" x2="512" y2="512" stroke="#20242e" stroke-width="1"/>
<circle cx="256" cy="256" r="190" fill="none" stroke="#2a2f3a" stroke-width="1.6"/>
<circle cx="256" cy="256" r="130" fill="none" stroke="#2a2f3a" stroke-width="1.6"/>
<circle cx="256" cy="256" r="70" fill="none" stroke="#2a2f3a" stroke-width="1.6"/>
</svg>
